<svg id="Layer_5" data-name="Layer 5" xmlns="http://www.w3.org/2000/svg" viewBox="0 0 485.57 468.83"><defs><style>.cls-1{fill:#b4004e;}.cls-2{fill:#e14474;}</style></defs><path class="cls-1" d="M1049.74,343.51c-14.3-18.83-40.64-26.67-70.48-21-22.13,4.24-44.36,15.53-62.6,31.8a143.09,143.09,0,0,0-31.74,40.84c-17.44-32.24-52.2-57.59-87-60.27-33.15-2.55-59,15.78-70.91,50.29-17.31,50.11,11.35,113.11,85.14,187.25,53,53.28,109.74,92.39,112.13,94l15,10.32c-2.1-14.15-.57-29.52,1.77-42.23q.95-11.52,7.07-27.37c0-.05,0-.07,0-.07h0q2.69-6.95,6.37-14.71c12.48-26.31,31.36-55.29,49.6-83.32,15.68-24.1,30.5-46.84,40.11-66.22C1070.7,389.6,1061.83,359.44,1049.74,343.51Zm-28.35,88c-9,18-23.37,40.19-38.64,63.63-30.56,47-61.93,95.13-66.74,133.68-21.38-16.26-54.72-43.11-86-74.62-82.42-82.89-88.38-133.13-78.88-160.68,7.56-21.88,21.65-33.33,40.91-33.33,1.29,0,2.6.05,3.93.16,15.41,1.18,32.39,9.15,46.59,21.84,14.77,13.21,39.29,63.27,40.93,63.35.1,0,.42-.31.93-.89h0c10.1-15.38,65.78-97.33,105.15-97.91h0c17.67-2.14,32.33,2.27,39.87,12.2C1040.34,373.32,1037.49,399.1,1021.39,431.52Z" transform="translate(-575.9 -320.72)"/><path class="cls-2" d="M799.85,789.54l-20.09-20c-.87-.87-87.57-87.16-153.27-149.63-20.8-19.77-36.06-43.32-44.14-68.08-7.49-22.94-8.49-46.31-2.81-65.82,7.17-24.67,24.22-41.36,46.79-45.8,18.42-3.63,39.71,1.24,61.57,14.08,18.59,10.92,37.76,27.51,57.18,49.46,6.52-13.23,16.12-31.5,27.92-50.52,31.17-50.24,61.59-79.81,90.42-87.88,17.67-5,35.06-1.85,50.29,9,24.62,17.48,32.9,39.7,25.3,67.94-6.15,22.81-22.54,48.46-41.51,78.16-18.29,28.62-39,61.05-56.56,99.46-20.19,44.21-32.05,87.61-36.27,132.67l-.06.5ZM638.81,467a36.31,36.31,0,0,0-7.07.67c-16.35,3.22-22.88,17.76-25.32,26.15-7.75,26.66,1.42,69.71,39.37,105.79,46.58,44.29,103.63,100.46,133.42,129.94,14.09-98.1,60.34-170.46,94.69-224.23,41.51-64.95,52.5-87.67,23.6-108.18-8.45-6-16.88-7.54-26.52-4.84-44.79,12.53-94.37,107.33-109.69,142.8L752,556.56l-14.54-18.29C701.46,493,665.28,467,638.81,467Z" transform="translate(-575.9 -320.72)"/></svg>